<?xml version="1.0" standalone="no"?>
<!DOCTYPE svg PUBLIC "-//W3C//DTD SVG 20010904//EN"
 "http://www.w3.org/TR/2001/REC-SVG-20010904/DTD/svg10.dtd">
<svg version="1.0" xmlns="http://www.w3.org/2000/svg"
 width="1024.000000pt" height="1024.000000pt" viewBox="0 0 1024.000000 1024.000000"
 preserveAspectRatio="xMidYMid meet">
<metadata>
Created by potrace 1.11, written by Peter Selinger 2001-2013
</metadata>
<g transform="translate(0.000000,1024.000000) scale(0.100000,-0.100000)"
fill="#000000" stroke="none">
<path d="M2465 10233 c-111 -10 -295 -46 -401 -78 -734 -223 -1262 -822 -1397
-1584 l-22 -126 0 -3310 c0 -2759 2 -3326 14 -3407 7 -54 17 -98 22 -98 5 0 9
10 9 23 0 35 57 251 97 367 279 811 951 1451 1780 1694 114 34 325 79 429 91
49 6 53 5 170 -66 133 -81 409 -217 554 -274 302 -118 611 -196 965 -242 198
-25 672 -25 870 0 354 46 663 124 965 242 145 57 421 193 554 274 138 83 114
81 351 35 939 -181 1719 -856 2028 -1754 40 -116 97 -332 97 -367 0 -13 4 -23
9 -23 5 0 15 44 22 98 12 81 14 648 14 3407 l0 3310 -22 126 c-150 849 -787
1487 -1637 1641 -120 22 -130 22 -1391 24 -803 1 -1233 -2 -1170 -7 684 -61
1311 -323 1820 -759 127 -109 334 -326 436 -455 146 -187 240 -338 357 -571
l61 -122 173 -4 c206 -5 246 -18 326 -102 94 -99 87 -9 87 -1176 0 -1167 7
-1077 -87 -1176 -80 -84 -120 -97 -326 -102 l-173 -4 -61 -122 c-182 -365
-370 -621 -659 -902 -527 -512 -1224 -824 -1973 -884 -890 -70 -1802 259
-2445 884 -289 281 -477 537 -659 902 l-61 122 -173 4 c-206 5 -246 18 -326
102 -94 99 -87 9 -87 1176 0 1167 -7 1077 87 1176 80 84 120 97 326 102 l173
4 61 122 c117 233 211 384 357 571 102 129 309 346 436 455 509 436 1139 699
1820 758 63 6 -357 9 -1130 9 -676 0 -1248 -2 -1270 -4z"/>
<path d="M3515 8310 c-389 -59 -692 -307 -775 -634 -18 -71 -20 -112 -20 -415
0 -185 5 -376 10 -426 90 -782 629 -1424 1378 -1639 241 -70 260 -71 1012 -71
610 0 686 2 785 18 860 145 1506 826 1605 1692 5 50 10 241 10 426 0 303 -2
344 -20 415 -76 299 -311 513 -678 617 l-77 21 -1590 2 c-874 1 -1612 -2
-1640 -6z m764 -672 c62 -189 118 -348 125 -354 6 -7 165 -63 354 -125 188
-63 342 -116 342 -119 0 -3 -154 -56 -342 -119 -189 -62 -348 -118 -354 -125
-7 -6 -63 -165 -125 -353 -63 -189 -116 -343 -119 -343 -3 0 -56 154 -119 343
-62 188 -118 347 -125 353 -6 7 -165 63 -353 125 -189 63 -343 116 -343 119 0
3 154 56 343 119 188 62 347 118 353 125 7 6 63 165 125 354 63 188 116 342
119 342 3 0 56 -154 119 -342z"/>
<path d="M3682 1900 c-226 -59 -404 -239 -462 -466 -19 -73 -20 -113 -20 -756
l0 -678 320 0 319 0 3 518 c3 515 3 517 26 568 29 64 102 136 167 166 70 31
180 31 250 0 65 -30 138 -102 167 -166 23 -51 23 -53 26 -568 l3 -518 1279 0
1280 0 0 678 c0 643 -1 683 -20 756 -58 229 -237 408 -466 466 -75 19 -115 20
-1438 19 -1306 0 -1364 -1 -1434 -19z m2526 -650 c62 -28 136 -101 163 -164
32 -71 32 -181 0 -252 -28 -64 -101 -136 -166 -165 -69 -31 -180 -31 -251 0
-64 28 -136 101 -165 166 -31 69 -31 181 0 250 39 88 126 161 218 185 53 13
147 4 201 -20z"/>
</g>
</svg>
